{"title":"Sacrifice 2011 DvDScr x264 Feel-Free","uid":6175507,"size":1063530253,"categoryP":"video","categoryS":"movies","magnet":"?xt=urn:btih:ffd5900491f5ebac89880d1114279b6179ba08b6&amp;dn=Sacrifice+2011+DvDScr+x264+Feel-Free&amp;tr=udp%3A%2F%2Ftracker.openbittorrent.com%3A80&amp;tr=udp%3A%2F%2Fopen.demonii.com%3A1337&amp;tr=udp%3A%2F%2Ftracker.coppersurfer.tk%3A6969&amp;tr=udp%3A%2F%2Fexodus.desync.com%3A6969","seeders":1,"leechers":0,"uploader":"hiest","files":-1,"time":1297758149,"description":"Genre:Action | Drama | Thriller\nLanguage:English\nIMDb:http://www.imdb.com/title/tt1630564/\nSource:DVDSCR IMAGINE Thx.\n\n\nFormat : MPEG-4\nFormat profile : Base Media\nCodec ID : isom\nFile size : 1 013 MiB\nDuration : 1h 39mn\nOverall bit rate : 1 423 Kbps\nMovie name : Sacrifice 2011 DvDScr x264 Feel-Free\n\n\nVideo\nFormat settings, CABAC : Yes\nFormat settings, ReFrames : 4 frames\nCodec ID : avc1\nCodec ID/Info : Advanced Video Coding\nDuration : 1h 39mn\nBit rate mode : Variable\nBit rate : 1 253 Kbps\nWidth : 720 pixels\nHeight : 384 pixels\nDisplay aspect ratio : 1.875\nFrame rate mode : Constant\nFrame rate : 23.976 fps\nColor space : YUV\nChroma subsampling : 4:2:0\nBit depth : 8 bits\nScan type : Progressive\nBits/(Pixel*Frame) : 0.189\nStream size : 891 MiB (88%)\nWriting library : x264\n\nAudio\nID : 2\nFormat : AAC\nFormat/Info : Advanced Audio Codec\nFormat version : Version 4\nFormat profile : LC\nCodec ID : 40\nDuration : 1h 39mn\nBit rate mode : Variable\nBit rate : 164 Kbps\nChannel(s) : 2 channels\nChannel positions : Front: L R\nSampling rate : 48.0 KHz\nStream size : 117 MiB (12%)\n\n\nPlot:\nA tough undercover cop inadvertently gets involved in a dangerous heroin ring when a young defector of the drug trade leaves his five year-old sister in his care","torrent":{"xt":"urn:btih:ffd5900491f5ebac89880d1114279b6179ba08b6","amp;dn":"Sacrifice+2011+DvDScr+x264+Feel-Free","amp;tr":["udp%3A%2F%2Ftracker.openbittorrent.com%3A80","udp%3A%2F%2Fopen.demonii.com%3A1337","udp%3A%2F%2Ftracker.coppersurfer.tk%3A6969","udp%3A%2F%2Fexodus.desync.com%3A6969"],"infoHash":"ffd5900491f5ebac89880d1114279b6179ba08b6","infoHashBuffer":{"type":"Buffer","data":[255,213,144,4,145,245,235,172,137,136,13,17,20,39,155,97,121,186,8,182]},"announce":[],"urlList":[]}}